HIERARCHY
ROOT SpineBase
{
  OFFSET 0.000000 0.000000 0.000000
  CHANNELS 6 Xposition Yposition Zposition Zrotation Xrotation Yrotation
  JOINT SpineMid
  {
    OFFSET 0.000000 31.689150 0.000000
    CHANNELS 3 Zrotation Xrotation Yrotation
    JOINT SpineShoulder
    {
      OFFSET -0.087624 23.403454 -0.773989
      CHANNELS 3 Zrotation Xrotation Yrotation
      JOINT Neck
      {
        OFFSET 0.009540 7.759289 -0.632074
        CHANNELS 3 Zrotation Xrotation Yrotation
        JOINT Head
        {
          OFFSET -5.149569 13.158578 1.952236
          CHANNELS 3 Zrotation Xrotation Yrotation
          End Site
          {
            OFFSET 0 0 0
          }
        }
      }
      JOINT ShoulderLeft
      {
        OFFSET -15.810063 -4.524448 8.767193
        CHANNELS 3 Zrotation Xrotation Yrotation
        JOINT ElbowLeft
        {
          OFFSET -3.023241 -27.454466 3.101098
          CHANNELS 3 Zrotation Xrotation Yrotation
          JOINT WristLeft
          {
            OFFSET 1.328641 -25.746604 -4.247152
            CHANNELS 3 Zrotation Xrotation Yrotation
            JOINT HandLeft
            {
              OFFSET 1.140105 -7.256608 -0.067504
              CHANNELS 3 Zrotation Xrotation Yrotation
              JOINT HandTipLeft
              {
                OFFSET 1.087639 -5.521342 -1.444673
                CHANNELS 3 Zrotation Xrotation Yrotation
                End Site
                {
                  OFFSET 0 0 0
                }
              }
              JOINT ThumbLeft
              {
                OFFSET -1.300038 -1.269609 -0.942127
                CHANNELS 3 Zrotation Xrotation Yrotation
                End Site
                {
                  OFFSET 0 0 0
                }
              }
            }
          }
        }
      }
      JOINT ShoulderRight
      {
        OFFSET 12.986680 -3.285768 -8.020821
        CHANNELS 3 Zrotation Xrotation Yrotation
        JOINT ElbowRight
        {
          OFFSET 9.867736 -26.032004 -4.547882
          CHANNELS 3 Zrotation Xrotation Yrotation
          JOINT WristRight
          {
            OFFSET 2.826688 -22.073019 -6.659755
            CHANNELS 3 Zrotation Xrotation Yrotation
            JOINT HandRight
            {
              OFFSET -0.842600 -6.769578 -1.240524
              CHANNELS 3 Zrotation Xrotation Yrotation
              JOINT HandTipRight
              {
                OFFSET 0.581807 -7.157582 -1.273752
                CHANNELS 3 Zrotation Xrotation Yrotation
                End Site
                {
                  OFFSET 0 0 0
                }
              }
              JOINT ThumbRight
              {
                OFFSET 2.751360 1.505714 -1.603096
                CHANNELS 3 Zrotation Xrotation Yrotation
                End Site
                {
                  OFFSET 0 0 0
                }
              }
            }
          }
        }
      }
    }
  }
  JOINT HipLeft
  {
    OFFSET -6.441875 0.098590 -0.784240
    CHANNELS 3 Zrotation Xrotation Yrotation
    JOINT KneeLeft
    {
      OFFSET 3.309774 -39.420055 4.453904
      CHANNELS 3 Zrotation Xrotation Yrotation
      JOINT AnkleLeft
      {
        OFFSET 7.225871 -34.263861 7.163339
        CHANNELS 3 Zrotation Xrotation Yrotation
        JOINT FootLeft
        {
          OFFSET -1.779971 -8.224353 -5.078946
          CHANNELS 3 Zrotation Xrotation Yrotation
          End Site
          {
            OFFSET 0 0 0
          }
        }
      }
    }
  }
  JOINT HipRight
  {
    OFFSET 6.723558 1.715374 -6.177693
    CHANNELS 3 Zrotation Xrotation Yrotation
    JOINT KneeRight
    {
      OFFSET 7.934142 -35.774000 -3.527881
      CHANNELS 3 Zrotation Xrotation Yrotation
      JOINT AnkleRight
      {
        OFFSET 8.954541 -39.116274 7.190220
        CHANNELS 3 Zrotation Xrotation Yrotation
        JOINT FootRight
        {
          OFFSET -1.784410 -8.025740 -6.174782
          CHANNELS 3 Zrotation Xrotation Yrotation
          End Site
          {
            OFFSET 0 0 0
          }
        }
      }
    }
  }
}
MOTION
Frames: 14
Frame Time: 0.033333
-15.762319 83.307704 341.850881 -0.000000 0.000000 22.277328 -0.000000 0.000000 -22.277328 -0.000000 0.000000 0.000000 -0.000000 0.000000 0.000000 0.000000 0.000000 0.000000 -0.000000 0.000000 0.000000 -0.000000 0.000000 0.000000 -0.000000 0.000000 0.000000 -0.000000 0.000000 0.000000 0.000000 0.000000 0.000000 0.000000 0.000000 0.000000 -0.000000 0.000000 0.000000 -0.000000 0.000000 0.000000 -0.000000 0.000000 0.000000 -0.000000 0.000000 0.000000 0.000000 0.000000 0.000000 0.000000 0.000000 0.000000 -0.000000 0.000000 -22.277328 -0.000000 0.000000 0.000000 -0.000000 0.000000 0.000000 0.000000 0.000000 0.000000 -0.000000 0.000000 -22.277328 -0.000000 0.000000 0.000000 -0.000000 0.000000 0.000000 0.000000 0.000000 0.000000
-16.113137 83.225051 341.662671 -0.432421 0.013964 22.129138 0.395308 -0.175824 -22.128479 -0.000000 0.000000 0.000000 -0.000000 0.000000 0.000000 0.000000 0.000000 0.000000 0.534160 0.732285 -0.023746 -0.533900 -0.732475 0.016920 -0.000000 0.000000 0.000000 0.396520 -3.033483 -0.695286 0.000000 0.000000 0.000000 0.000000 0.000000 0.000000 -1.152193 -0.154746 0.141658 -0.669934 -0.167539 0.364666 -2.349378 -1.784542 0.457421 1.223428 -0.762965 -0.780074 0.000000 0.000000 0.000000 0.000000 0.000000 0.000000 0.395308 -0.175824 -22.128479 -0.000000 0.000000 0.000000 -0.621581 0.575650 0.261279 0.000000 0.000000 0.000000 0.395308 -0.175824 -22.128479 -0.000000 0.000000 0.000000 -0.738812 -4.741361 1.642471 0.000000 0.000000 0.000000
-16.404995 83.161287 341.471347 -0.795720 0.055343 22.029704 0.716876 -0.349754 -22.027132 -0.000000 0.000000 0.000000 -0.000000 0.000000 0.000000 0.000000 0.000000 0.000000 0.930750 1.306159 -0.049421 -1.704788 -2.370067 0.076443 -0.380954 0.690449 -0.110519 1.494091 -5.356083 -1.173338 0.000000 0.000000 0.000000 0.000000 0.000000 0.000000 -2.141183 -0.290024 0.260720 -1.304658 -0.305371 0.695569 -4.163615 -3.414132 0.716428 2.338030 -1.037057 -1.503787 0.000000 0.000000 0.000000 0.000000 0.000000 0.000000 1.584090 -1.106785 -21.924938 -1.087149 0.378350 -0.087582 -1.186159 1.180296 0.485124 0.000000 0.000000 0.000000 1.383045 -1.164486 -22.221196 -0.924821 0.502206 0.206921 -1.243469 -8.644784 2.952385 0.000000 0.000000 0.000000
-16.637894 83.116410 341.276911 -1.090304 0.124128 21.979122 0.087969 -0.341427 -22.009883 -0.089377 -0.014150 -0.049084 0.970089 0.174998 0.077339 0.000000 0.000000 0.000000 2.157972 1.898872 0.000390 -2.445831 -3.263912 0.111023 -1.549193 0.888969 -0.162499 2.694866 -7.467016 -1.547452 0.000000 0.000000 0.000000 0.000000 0.000000 0.000000 -2.003289 -0.234980 0.445421 -1.858368 -0.400972 0.983046 -5.254831 -4.780603 0.787829 3.070036 -1.005124 -2.057934 0.000000 0.000000 0.000000 0.000000 0.000000 0.000000 2.143566 -1.609144 -21.829936 -1.498196 0.569427 -0.114218 -1.693919 1.814361 0.671547 0.000000 0.000000 0.000000 1.849279 -1.699565 -22.248755 -1.264246 0.753678 0.300692 -1.549481 -11.466675 3.881395 0.000000 0.000000 0.000000
-16.811833 83.090422 341.079361 -1.316481 0.220357 21.977387 0.088216 -0.405218 -22.014309 -0.100002 -0.017497 -0.059988 1.182806 0.141819 0.094728 0.000000 0.000000 0.000000 2.492091 2.125367 -0.001438 -3.116780 -3.964150 0.150026 -3.364447 0.993971 -0.202201 4.272251 -9.247022 -1.834403 0.000000 0.000000 0.000000 0.000000 0.000000 0.000000 -2.472395 -0.366307 0.541938 -2.292297 -0.443406 1.219097 -5.496778 -5.809408 0.701050 3.217023 -0.809595 -2.358517 0.000000 0.000000 0.000000 0.000000 0.000000 0.000000 2.546808 -2.080851 -21.791648 -1.821449 0.761579 -0.130035 -2.145024 2.478165 0.820491 0.000000 0.000000 0.000000 2.163182 -2.204872 -22.315765 -1.520679 1.005494 0.387128 -1.694682 -13.054009 4.395516 0.000000 0.000000 0.000000
-16.926814 83.083323 340.878698 -1.474448 0.344122 22.024408 0.073372 -0.444306 -22.065093 -0.101190 -0.020240 -0.068209 0.584812 0.334302 0.330388 0.000000 0.000000 0.000000 2.634953 2.149408 0.000190 -3.720623 -4.471012 0.198605 -5.793049 1.011289 -0.228371 6.237886 -10.731805 -2.062529 0.000000 0.000000 0.000000 0.000000 0.000000 0.000000 -2.849475 -0.523262 0.612405 -2.576028 -0.424037 1.397355 -4.823124 -6.459616 0.488450 2.651221 -0.551932 -2.354961 0.000000 0.000000 0.000000 0.000000 0.000000 0.000000 2.792920 -2.523444 -21.811848 -2.057302 0.954743 -0.135496 -2.539588 3.171916 0.931817 0.000000 0.000000 0.000000 2.323293 -2.680857 -22.423907 -1.693549 1.257708 0.465584 -1.704748 -13.329887 4.475056 0.000000 0.000000 0.000000
-17.024294 83.102625 340.658850 -1.614596 0.560262 22.303590 0.057582 -0.480678 -22.345354 -0.088053 -0.046066 -0.075227 0.685152 0.264885 0.377318 0.000000 0.000000 0.000000 2.485470 1.714148 0.023228 -4.335450 -4.683328 0.279039 -9.948536 0.139179 -0.454275 9.210416 -12.384839 -2.398020 0.000000 0.000000 0.000000 0.000000 0.000000 0.000000 -3.042264 -0.795368 0.617976 -2.878121 -0.363684 1.576053 -2.801934 -7.123564 0.132775 0.994862 0.634756 -1.899499 0.000000 0.000000 0.000000 0.000000 0.000000 0.000000 2.921634 -3.061528 -22.067334 -3.046115 1.433367 -0.227450 -2.171937 3.353842 1.216616 0.000000 0.000000 0.000000 2.370409 -3.281144 -22.769597 -1.836643 1.560506 0.553491 -1.705601 -11.830590 4.085946 0.000000 0.000000 0.000000
-16.998612 83.146187 340.437433 -1.620742 0.770705 22.610870 0.013706 -0.471461 -22.650610 -0.081816 -0.049255 -0.078257 0.685780 0.041703 0.377843 0.000000 0.000000 0.000000 2.083298 1.039069 0.042301 -4.661456 -4.492702 0.380002 -14.396267 0.631170 -0.254413 12.654376 -15.218901 -2.998061 0.000000 0.000000 0.000000 0.000000 0.000000 0.000000 -3.172987 -1.029539 0.623122 -2.810373 -0.187663 1.620225 0.117343 -6.273929 -0.356985 -1.882157 0.709117 -0.952208 0.000000 0.000000 0.000000 0.000000 0.000000 0.000000 2.750127 -3.461431 -22.382806 -3.075384 1.459405 -0.247638 -2.211789 4.139794 1.193474 0.000000 0.000000 0.000000 2.127112 -3.753138 -23.136280 -1.803270 1.859400 0.620702 -1.063995 -7.854923 2.627688 0.000000 0.000000 0.000000
-16.901863 83.203662 340.168562 -1.536645 1.003327 22.755562 -0.065312 -0.433709 -22.792224 -0.044853 -0.023862 -0.076226 0.525501 -0.396909 0.322670 0.000000 0.000000 0.000000 1.737605 0.673291 0.022644 -4.963465 -4.542350 0.473341 -18.100231 0.725461 -0.149306 16.162924 -14.736605 -2.896917 0.000000 0.000000 0.000000 0.000000 0.000000 0.000000 -3.358034 -1.218273 0.658504 -2.357486 0.163259 1.543714 2.742535 -5.545112 -0.821296 -4.841463 -1.419109 -0.372089 0.000000 0.000000 0.000000 0.000000 0.000000 0.000000 2.435811 -3.853039 -22.549927 -3.071356 1.459886 -0.274626 -2.355703 5.453476 1.175002 0.000000 0.000000 0.000000 1.686776 -4.184560 -23.345282 -1.660477 2.186011 0.681226 -0.747072 -4.320070 1.550215 0.000000 0.000000 0.000000
-16.750188 83.259353 339.903695 -1.389097 1.234227 22.711767 -0.149935 -0.392298 -22.744731 -0.003556 0.013149 -0.070856 0.259372 -0.947664 0.225798 0.000000 0.000000 0.000000 1.300603 0.190161 0.002196 -5.290663 -4.368076 0.587068 -19.645579 1.575018 0.148918 16.880957 -15.755690 -2.856343 0.000000 0.000000 0.000000 0.000000 0.000000 0.000000 -3.547496 -1.359386 0.702344 -2.169557 0.261842 1.478498 7.307105 -4.551289 -1.615143 -8.075271 -1.260374 0.642086 0.000000 0.000000 0.000000 0.000000 0.000000 0.000000 2.026381 -4.185076 -22.541519 -2.994508 1.399592 -0.305805 -2.809188 6.614042 1.398778 0.000000 0.000000 0.000000 1.170532 -4.512592 -23.355677 -1.461273 2.460310 0.721740 0.080979 -2.285914 0.454669 0.000000 0.000000 0.000000
-16.475181 83.297470 339.737483 -1.068988 1.301532 22.461869 -0.286862 -0.226358 -22.492887 0.013040 0.047275 -0.063690 -0.038306 -1.479098 0.098623 0.000000 0.000000 0.000000 0.848596 -0.205396 -0.025508 -5.529831 -4.218564 0.683975 -19.987110 1.653908 0.117417 16.320588 -15.569540 -2.610265 0.000000 0.000000 0.000000 0.000000 0.000000 0.000000 -3.671248 -1.374781 0.750708 -1.330267 0.520667 1.209940 11.124784 -3.427923 -2.294865 -12.025197 -2.562925 1.540561 0.000000 0.000000 0.000000 0.000000 0.000000 0.000000 1.447423 -4.142377 -22.351950 -2.872335 1.248730 -0.349960 -2.716305 8.234107 1.257383 0.000000 0.000000 0.000000 0.535917 -4.417182 -23.121774 -1.619268 1.888124 0.483480 1.397599 -0.521884 -0.202300 0.000000 0.000000 0.000000
-16.119989 83.315581 339.631608 -0.636191 1.300639 22.134641 -0.475156 -0.053975 -22.164602 0.013347 0.051123 -0.054869 -0.334360 -1.987441 -0.075219 0.000000 0.000000 0.000000 0.415569 -0.511754 -0.050486 -5.559777 -4.188474 0.725690 -21.499919 0.528202 -0.296208 17.440027 -13.628598 -2.246428 0.000000 0.000000 0.000000 0.000000 0.000000 0.000000 -3.636412 -1.203150 0.802580 -0.496482 0.636309 0.871126 15.174909 -2.414447 -3.025636 -16.161191 -4.289696 2.313913 0.000000 0.000000 0.000000 0.000000 0.000000 0.000000 0.719997 -3.910555 -22.099609 -2.643966 1.114082 -0.375242 -2.330260 9.503118 0.951610 0.000000 0.000000 0.000000 -0.182222 -4.124703 -22.788492 -1.397500 1.948845 0.432804 2.277843 -0.133307 -0.862423 0.000000 0.000000 0.000000
-15.710465 83.311164 339.585433 -0.122734 1.226884 21.800241 -0.683254 0.162662 -21.828345 0.014490 0.046879 -0.043606 -0.680033 -2.418995 -0.241104 0.000000 0.000000 0.000000 0.259574 -0.428240 -0.075707 -5.526543 -4.699461 0.662700 -22.460740 -0.658222 -0.702628 18.072746 -13.331882 -2.512970 0.000000 0.000000 0.000000 0.000000 0.000000 0.000000 -4.048950 -1.063558 0.884333 0.989244 0.550899 0.374702 18.391285 -0.454768 -3.869694 -19.435468 -5.079528 2.977550 0.000000 0.000000 0.000000 0.000000 0.000000 0.000000 -0.119070 -3.520839 -21.847005 -2.352622 1.040124 -0.379201 -1.064030 10.986039 -0.021963 0.000000 0.000000 0.000000 -0.991154 -3.683426 -22.431219 -1.119693 2.019279 0.376382 2.450494 -1.279000 -0.625807 0.000000 0.000000 0.000000
-15.316213 83.288407 339.586575 0.369272 1.075358 21.352862 -0.885469 0.335521 -21.377710 0.023742 0.001274 -0.031123 -0.839865 -2.595404 -0.386854 0.000000 0.000000 0.000000 0.554859 -1.066129 0.051634 -7.301123 -5.221211 0.609638 -22.321698 -0.823322 -0.875905 17.563398 -13.873011 -2.770648 0.000000 0.000000 0.000000 0.000000 0.000000 0.000000 -3.741085 -0.789341 0.850156 3.229385 1.256501 -0.318257 17.656396 0.135207 -3.639325 -21.210066 -7.302855 3.058687 0.000000 0.000000 0.000000 0.000000 0.000000 0.000000 -0.888711 -3.065003 -21.469084 -2.103714 1.066009 -0.365924 -0.565085 11.079935 -0.241478 0.000000 0.000000 0.000000 -1.679012 -3.152479 -21.940062 -0.816168 1.920162 0.297146 2.117877 -3.667565 0.281501 0.000000 0.000000 0.000000
